<svg xmlns="http://www.w3.org/2000/svg" width="512" height="512" viewBox="0 0 512 512">
  <rect width="512" height="512" rx="96" fill="#0a0f1e"/>
  <rect x="24" y="24" width="464" height="464" rx="80" fill="none" stroke="url(#g)" stroke-width="2" opacity="0.3"/>
  <defs>
    <linearGradient id="g" x1="0%" y1="0%" x2="100%" y2="100%">
      <stop offset="0%" stop-color="#3b82f6"/>
      <stop offset="100%" stop-color="#06b6d4"/>
    </linearGradient>
  </defs>
  <!-- K-line bars -->
  <g stroke-width="0" opacity="0.9">
    <!-- Red candle 1 -->
    <rect x="120" y="180" width="36" height="120" rx="4" fill="#ef4444"/>
    <rect x="135" y="160" width="6" height="180" rx="2" fill="#ef4444"/>
    <!-- Green candle 2 -->
    <rect x="185" y="220" width="36" height="100" rx="4" fill="#22c55e"/>
    <rect x="200" y="200" width="6" height="160" rx="2" fill="#22c55e"/>
    <!-- Red candle 3 -->
    <rect x="250" y="150" width="36" height="140" rx="4" fill="#ef4444"/>
    <rect x="265" y="130" width="6" height="200" rx="2" fill="#ef4444"/>
    <!-- Green candle 4 -->
    <rect x="315" y="200" width="36" height="90" rx="4" fill="#22c55e"/>
    <rect x="330" y="180" width="6" height="150" rx="2" fill="#22c55e"/>
  </g>
  <!-- Trend line -->
  <polyline points="138,240 203,270 268,220 333,245 390,190" fill="none" stroke="#3b82f6" stroke-width="4" stroke-linecap="round" stroke-linejoin="round" opacity="0.8"/>
  <!-- Dot -->
  <circle cx="390" cy="190" r="8" fill="#3b82f6" opacity="0.9"/>
  <circle cx="390" cy="190" r="4" fill="#ffffff"/>
  <!-- Text -->
  <text x="256" y="420" font-family="system-ui,sans-serif" font-size="42" font-weight="700" fill="#94a3b8" text-anchor="middle" letter-spacing="2">A股分析</text>
</svg>
